<?xml version="1.0" encoding="UTF-8"?>
<svg id="Layer_1" xmlns="http://www.w3.org/2000/svg" version="1.1" viewBox="0 0 215 100">
  <!-- Generator: Adobe Illustrator 29.0.1, SVG Export Plug-In . SVG Version: 2.1.0 Build 192)  -->
  <defs>
    <style>
      .st0 {
        fill: #fff;
      }

      .st1 {
        fill: #1d3565;
      }

      .st2 {
        fill: #c32032;
      }

      .st3 {
        fill: #004990;
      }
    </style>
  </defs>
  <rect class="st0" width="185" height="100"/>
  <g>
    <path class="st3" d="M36.2000008,31.2000008h26.2999992c.4000015,2,.7000008,3.7999992,1.0999985,5.9000015h-13.4000015s-.0999985-.5999985-.5999985-4c-1.2000008,2.2999992-2.0999985,4-2.2000008,4h-14.7000008c.0000038-.1000023,2.4000015-4.0000038,3.5000038-5.9000015Z"/>
    <path class="st3" d="M36.9000015,29.7999992c.7000008-1.2000008,2.2999992-4,2.2999992-4h22.2000008c.2999992,1.3999996.2999992,1.7000008.7000008,4h-25.2000008Z"/>
    <path class="st3" d="M40.4000015,24c.9000015-1.6000004,1.2999992-2.2999992,2.0999985-3.6000004h18c.2999992,1.6000004.2999992,1.8999996.7999992,4.1000004h-21.2000008s.2000008-.3999996.3000031-.5Z"/>
    <path class="st3" d="M43.2999992,19c.7999992-1.2999992,2.5-4.1999998,2.5-4.1999998h13.7000008c.2999992,1.6999998.2999992,1.499999.7999992,4.1999998h-17Z"/>
    <path class="st3" d="M74.9000015,37c.4000015-2.0999985.5999985-3.5,1-5.8999996h13c-.1999969,1.1999989-.3000031,1.9999981-.5,3.6000004h8.5c2.3000031,0,4.6999969-1.7999992,4.9000015-3.6000004h11.1999969c-.8000031,2.6000004-3.1999969,4.3000011-5.1999969,5.8999996h-32.9000015Z"/>
    <path class="st3" d="M76.0999985,29.7999992c.4000015-2.1000004.5-2.7000008.6999969-4h12.9000015c-.3000031,2-.3000031,2.2999992-.5999985,4h-13Z"/>
    <path class="st3" d="M77.0999985,24.5c.3000031-1.8999996.4000015-2.2000008.6999969-4.1000004h34.5999985c.9000015,1.3999996,1.1999969,2.5,1.4000015,4.1000004h-36.6999969Z"/>
    <path class="st3" d="M78,19c.4000015-2.3999996.5-2.8999996.6999969-4.1999998h21.6999969c9.0999985,0,11.1999969,4.1999998,11.1999969,4.1999998h-33.5999908Z"/>
    <path class="st3" d="M101.9000015,29.7999992c-.0999985-1.3999996-.0999985-2.7999992-3-4h15.0999985c.0999985,1.3999996-.0999985,2.7000008-.5,4h-11.5999985Z"/>
    <path class="st3" d="M116.1999969,37c.3000031-2.0999985.5999985-3.5999985,1.5-5.8999996h15c-1.1000061,1.6999989-2,3.8000011-2.5,5.8999996h-14Z"/>
    <path class="st3" d="M118.1999969,29.7999992c.9000015-1.7999992,2.1999969-4,2.1999969-4h17.8999939c-2,.7999992-3.6000061,2.1000004-4.8999939,4h-15.1999969Z"/>
    <path class="st3" d="M121.4000015,24.5c2.1999969-2.7999992,3.9000015-4.1000004,3.9000015-4.1000004h30.3999939s1.5,1.6000004,2.6999969,4.1000004h-36.9999924Z"/>
    <path class="st3" d="M126.9000015,19c3.7000046-2.6000004,8.2000046-4.6000004,12.2999954-4.8999996.8000031-.1000004,1.3000031-.1000004,1.8000031-.1000004s2.1000061,0,2.5.1000004c2.6999969.3000002,3.3000031.3000002,5.5,1.1000004h19v2.6000004h-14.6999969c.6000061.5.8999939.7999992,1.3000031,1.2999992-9-.1000004-18.5-.1000004-27.7000046-.1000004Z"/>
    <path class="st3" d="M144.6999969,28.1000004c-.6000061-.7000008-1.3000031-1.7000008-2.3000031-2.2999992h16.5c.6000061,1.2999992.8000031,2.2999992,1,4h-14.3000031c.1000061-.0000019-.0999908-.6000004-.8999939-1.7000008Z"/>
    <path class="st3" d="M146.1000061,31.2000008h13.8999939s.1000061,1.2999992.1000061,1.9000015h-13.6000061c-.1000061-1.1000023-.3999939-1.9000015-.3999939-1.9000015Z"/>
  </g>
  <g>
    <path class="st2" d="M11.3000002,60.0999985v2.0999985h22.499999c1.4000015-2.5999985,2.7000008-4.9000015,4-7.2999992h-15.6000004c-1.1000004,1.9000015-1.7000008,2.9000015-3.1000004,5.2000008h-7.7999983Z"/>
    <path class="st2" d="M27.7000008,45.5999985h37.4999962c.8000031,4.5,1,5.7999992,1.4000015,8H22.8999977c.0000019,0,3.2000027-5.3999977,4.8000031-8Z"/>
    <path class="st2" d="M28.3999996,44.2999992c1.2000008-2.0999985,2.2999992-3.9000015,3.5-5.9000015h14.8000011c-1.0999985,2-1.2000008,2.2000008-3.2000008,5.9000015h-15.1000004Z"/>
    <path class="st2" d="M51.0999985,44.2999992c-.2999992-2.0999985-.2000008-1.2999992-.7999992-5.9000015h13.5c.5000038,2.7000008.7000008,4,1.1000023,5.9000015h-13.8000031Z"/>
    <path class="st2" d="M53.5,62.2999992c-.2999992-2.5-.7000008-5-1-7.2999992h14.3000031c1,5.2999992.9000015,5,1.4000015,7.2999992h-14.7000046Z"/>
    <path class="st2" d="M94.8000031,62.2000008h-24.3000031c.5999985-3.7000008.9000015-5.2999992,1.3000031-7.2999992h38.4000015c-1.5999985,3.7000008-5.6999969,6.2000008-9.6999969,6.9000015-2.1000061.4999962-4.1000061.3999977-5.7000046.3999977Z"/>
    <path class="st2" d="M72,53.5999985c.3000031-1.9000015,1-5.7000008,1.4000015-8h13.1999969c-.4000015,2.4000015-.5,2.9000015-.9000015,5.5h7.4000015c3.5-.2000008,6.1999969-1.5999985,6.4000015-5.5h12.0999985c.5999985,2.7000008-.4000015,7.2999992-.9000015,8h-38.6999969Z"/>
    <path class="st2" d="M73.5999985,44.2999992c.4000015-2.5.6999969-4,1-5.9000015h32.9000015c1.6999969,1.5999985,3.5,4.2000008,3.8000031,5.9000015h-12c-.5-2.2999992-3-2.9000015-6.5-2.9000015h-5.5c-.1999969,1.4000015-.1999969,1.5-.5,2.9000015h-13.2000046Z"/>
    <path class="st2" d="M153.1000061,55c-3.6000061,4.5999985-8.6999969,6.9000015-14.1999969,7.7000008-7.3999939,1-15-1.4000015-19.3000031-7.7999992,12.0999908,0,22.1999969,0,33.5.0999985h0Z"/>
    <path class="st2" d="M118.8000031,53.5999985c-1.3000031-1.7999992-2.3000031-5.4000015-2.5999985-8h14.0999985c1,2.5,2.6999969,4.7000008,5.3000031,5.0999985,3.6999969.5999985,6.5-2.2000008,8.1000061-5.0999985h14.6999969c-1,2.7999992-3.1000061,6.4000015-4.3999939,8h-35.2000122Z"/>
    <path class="st2" d="M116,44.2999992c-.1999969-1.0999985-.1999969-3.9000015,0-5.9000015h13.8999939c-.3000031,1.7999992-.3000031,3.7999992.1000061,5.9000015h-14Z"/>
    <path class="st2" d="M145.5,41.9000015h14c-.1000061.5999985-.6000061,2.4000015-.6000061,2.4000015h-14.3999939c.6000061-1.1000023,1-2.4000015,1-2.4000015Z"/>
  </g>
  <path class="st3" d="M156.8999939,57c.6999969,0,1.1999969.2000008,1.6999969.7000008s.6999969,1,.6999969,1.7000008-.1999969,1.2000008-.6999969,1.7000008-1,.7000008-1.6999969.7000008-1.1999969-.2000008-1.6999969-.7000008-.6999969-1-.6999969-1.7000008.1999969-1.2000008.6999969-1.7000008c.5-.4000015,1-.7000008,1.6999969-.7000008ZM159.6999969,59.4000015c0-.7999992-.3000031-1.4000015-.8000031-2-.6000061-.5-1.1999969-.7999992-2-.7999992s-1.3999939.2999992-2,.7999992c-.5.5999985-.8000031,1.2000008-.8000031,2s.3000031,1.4000015.8000031,2,1.1999969.7999992,2,.7999992,1.3999939-.2999992,2-.7999992.8000031-1.2000008.8000031-2ZM157.6999969,58.7999992c0,.2000008-.1000061.4000015-.3000031.5-.1000061,0-.3000031.0999985-.5.0999985h-.5v-1.0999985h.5c.3000031,0,.5,0,.6999969.0999985.0000153.1000023.1000061.2000008.1000061.4000015ZM155.8000031,57.9000015v3.0999985h.5v-1.2000008h.3999939c.3000031,0,.5,0,.6000061.0999985.1999969.0999985.3000031.2999992.3000031.7000008v.2999992h.5v-.6000023c0-.2000008-.1000061-.2999992-.1999969-.5-.1000061-.2000008-.3000031-.2999992-.5-.2999992.1999969,0,.3000031-.0999985.3999939-.0999985.1999969-.0999985.3000031-.2999992.3000031-.5999985,0-.4000015-.1999969-.7000008-.5-.7999992-.1999969-.0999985-.5-.0999985-.8000031-.0999985h-1Z"/>
  <g>
    <path class="st3" d="M21.7999992,77.6999969c-.1000004.8000031-.1000004,2.1999969,2.5,2.1999969,1.3999996,0,3.1000004-.3000031,3.3999996-1.8000031.2000008-1.0999985-.7999992-1.3000031-2.2000008-1.6999969l-1.4999981-.1999969c-2.2000008-.5-4.2999992-1-3.6000004-4,.2999992-1.5,1.7999992-4.1999969,6.3999996-4.1999969,4.3999996,0,4.8999996,2.6999969,4.6000004,4.4000015h-2.8999996c.1000004-.5999985.1000004-2-2.5-2-1.1000004,0-2.6000004.4000015-2.8999996,1.5999985-.2000008,1.0999985.6000004,1.3000031,1.2000008,1.4000015l3.2999992.8000031c1.7999992.5,3.5,1.1999969,2.8999996,3.6999969-.8999996,4.0999985-5.3999996,4.5-6.6000004,4.5-5.1999989,0-5.5-2.9000015-5.1000004-4.5h3v-.2000046Z"/>
    <path class="st3" d="M41.2999992,81.9000015h-2.7000008l.2999992-1.4000015h0c-.9000015,1.0999985-2.0999985,1.6999969-3.5999985,1.6999969-2.0999985,0-3.3999996-1.0999985-2.7999992-3.6999969l1.5-6.5999985h2.7999992l-1.4000015,6.3000031c-.2999992,1.5999985.5,1.9000015,1.4000015,1.9000015s2.2999992-.5,2.7000008-2.3000031l1.2999992-5.8000031h2.7999992l-2.2999992,9.9000015Z"/>
    <path class="st3" d="M47.5,77.0999985c.4000015-1.5999985,1.2000008-3.1999969,3.0999985-3.1999969,1.7999992,0,2,1.5,1.7000008,3.0999985-.2999992,1.1999969-1.2000008,3-3,3-1.7000008,0-2.0999985-1.4000015-1.7999992-2.9000015ZM48.7000008,71.8000031h-2.7000008l-3.0999985,14h2.7999992l1.2000008-5.1999969h0c.2000008.5.7000008,1.5999985,2.5999985,1.5999985,3.2000008,0,5.0999985-2.6999969,5.7000008-5.4000015.7999992-3.5-.9000015-5.1999969-3.2000008-5.1999969-1.9000015,0-2.9000015.9000015-3.5,1.6999969h0l.2000008-1.5Z"/>
    <path class="st3" d="M59.7000008,77.0999985c.4000015-1.5999985,1.2000008-3.1999969,3.0999985-3.1999969,1.7999992,0,2.0000038,1.5,1.7000008,3.0999985-.3000031,1.1999969-1.2000008,3-3,3s-2.2000008-1.4000015-1.7999992-2.9000015ZM60.7999992,71.8000031h-2.7000008l-3.0999985,14h2.7999992l1.2000008-5.1999969h0c.2000008.5.7000008,1.5999985,2.5999985,1.5999985,3.0999985,0,5.0999985-2.6999969,5.6999969-5.4000015.8000031-3.5-.9000015-5.1999969-3.1999969-5.1999969-1.9000015,0-2.9000015.9000015-3.5999985,1.6999969h0l.2999992-1.5Z"/>
    <path class="st3" d="M71,81.9000015h-2.8000031l3-13.5999985h2.8000031l-3,13.5999985Z"/>
    <path class="st3" d="M79.4000015,81.8000031c-2.1999969,3.6999969-2.5999985,4.1999969-5,4.1999969h-1.1999969l.5-2.0999985h.5c1,0,1.5999985-.0999985,2.1999969-1.5l-1.5999985-10.5h3.0999985l.5999985,7.4000015h0l3.8000031-7.4000015h2.9000015l-5.8000031,9.9000015Z"/>
    <path class="st3" d="M100.9000015,72.8000031c-.0999985-.8000031-.1999969-2.4000015-2.5-2.4000015-1.4000015,0-3.5999985.9000015-4.4000015,4.8000031-.5,2.4000015,0,4.5999985,2.4000015,4.5999985,1.5999985,0,2.9000015-.9000015,3.5999985-2.5999985h2.8000031c-1.1999969,3-3.5999985,5-7,5-3.5999985,0-5.6999969-2.4000015-4.6999969-7.1999969,1-4.8000031,4.3000031-7.1999969,7.8000031-7.1999969,4.0999985,0,5.0999985,2.8000031,4.9000015,4.8000031h-2.9000092v.1999893Z"/>
    <path class="st3" d="M111.8000031,76.9000015c-.3000031,1.3000031-1,3.0999985-3.0999985,3.0999985-2,0-2-1.8000031-1.8000031-3.0999985.3000031-1.3000031,1-3.0999985,3.0999985-3.0999985s2.0999985,1.7999954,1.8000031,3.0999985ZM114.5,76.9000015c.8000031-3.5999985-1.3000031-5.3000031-4-5.3000031s-5.5,1.6999969-6.3000031,5.3000031c-.8000031,3.5999985,1.3000031,5.3000031,4,5.3000031,2.8000031-.0000076,5.6000061-1.7000046,6.3000031-5.3000031Z"/>
    <path class="st3" d="M118.0999985,81.9000015h-2.8000031l.5999985-2.8000031h2.8000031l-.5999985,2.8000031Z"/>
    <path class="st3" d="M130.6000061,71.8000031l-2.1000061,10.0999985h-2.6999969l2.1999969-10.0999985h2.6000061ZM130.8999939,70.6999969h-2.6999969l.5-2.5h2.6999969l-.5,2.5Z"/>
    <path class="st3" d="M140.1000061,81.9000015h-2.6999969l1.3000031-6.0999985c.1999969-.6999969.3999939-2-1.3000031-2-1.1999969,0-2.3000031.8000031-2.6000061,2.3000031l-1.1999969,5.8000031h-2.6000061l2.1000061-10.0999985h2.5l-.3000031,1.5h0c.5-.5999985,1.5-1.6999969,3.3999939-1.6999969,2,0,3.3000031,1.1999969,2.8000031,3.4000015l-1.3999939,6.8999863Z"/>
    <path class="st3" d="M152,78.3000031c-.3000031,1-1.6999969,3.9000015-5.3999939,3.9000015-3.8000031,0-4-2.9000015-3.6000061-5,.6999969-3.3000031,2.6000061-5.5999985,6-5.5999985,1.6000061,0,4.1000061.6999969,3.6000061,3.9000015h-2.6999969c0-.6999969-.1999969-1.6999969-1.3999939-1.5999985-1.6999969,0-2.5,1.6999969-2.6999969,2.9000015-.1999969,1.0999985-.6999969,3.3000031,1.3999939,3.3000031,1.3000031,0,2.1000061-1.3000031,2.1999969-1.8000031,0,0,2.5999908,0,2.5999908-.0000076Z"/>
    <path class="st3" d="M155.8999939,81.9000015h-2.8999939l.6000061-2.8000031h2.8000031l-.5000153,2.8000031Z"/>
  </g>
  <polygon class="st1" points="185 14 185 100 185.1999969 100 215 14 185 14"/>
</svg>